# xmcd
# 
# Track frame offsets:
#     150
#     20402
#     46835
#     63222
#     72685
#     98465
#     121482
#     145265
#     164005
#     188690
# 
# Disc length: 2710
# 
# Revision: 1
# Processed by: cddbd v1.5.2PL0 Copyright (c) Steve Scherf et al.
# Submitted via: BonkEnc v1.0.8
# 
DISCID=880a940a
DTITLE=尾崎亜美 - Dinner's Ready
DYEAR=1988
DGENRE=JPop
TTITLE0=五つ数えたら
TTITLE1=Change Of Mind
TTITLE2=さよならの乾杯
TTITLE3=美味しい Life Style
TTITLE4=Angel Comes Along （天使が帰って来た夜）
TTITLE5=Prom Night
TTITLE6=抜け出したスクリーン
TTITLE7=雨は止まない
TTITLE8=Dinner's Ready
TTITLE9=A Little Kingdom
EXTD=YEAR: 1988
EXTT0=
EXTT1=
EXTT2=
EXTT3=
EXTT4=
EXTT5=
EXTT6=
EXTT7=
EXTT8=
EXTT9=
PLAYORDER=
